<?xml version="1.0" encoding="UTF-8" standalone="no"?><!DOCTYPE svg PUBLIC "-//W3C//DTD SVG 1.1//EN" "http://www.w3.org/Graphics/SVG/1.1/DTD/svg11.dtd"><svg width="100%" height="100%" viewBox="0 0 190 97" version="1.1" xmlns="http://www.w3.org/2000/svg" xmlns:xlink="http://www.w3.org/1999/xlink" xml:space="preserve" xmlns:serif="http://www.serif.com/" style="fill-rule:evenodd;clip-rule:evenodd;"><rect id="Artboard4" x="0.699" y="0.981" width="188.648" height="95.789" style="fill:none;"/><clipPath id="_clip1"><rect x="0.699" y="0.981" width="188.648" height="95.789"/></clipPath><g clip-path="url(#_clip1)"><g><path d="M188.829,14.66c0,-7.252 -5.887,-13.14 -13.14,-13.14l-161.33,0c-7.252,0 -13.14,5.888 -13.14,13.14l0,68.46c0,7.252 5.888,13.14 13.14,13.14l161.33,0c7.253,0 13.14,-5.888 13.14,-13.14l0,-68.46Z" style="fill:#0071bc;stroke:#2e3192;stroke-width:1px;"/><path d="M1.189,54l187.64,0l0,29c0,7.197 -5.922,13.12 -13.12,13.12l-161.37,0c-0.01,0 -0.02,0 -0.03,0c-7.197,0 -13.12,-5.923 -13.12,-13.12c0,0 0,0 0,0l0,-29Z" style="fill-opacity:0.35;fill-rule:nonzero;"/><path d="M175.069,3.27c6.389,0.005 11.645,5.261 11.65,11.65l0,67.95c-0.005,6.389 -5.261,11.645 -11.65,11.65l-160.1,0c-6.389,-0.005 -11.644,-5.261 -11.65,-11.65l0,-67.95c0.006,-6.389 5.261,-11.645 11.65,-11.65l160.1,0m0,-1.38l-160.1,0c-7.131,0 -13,5.868 -13,13l0,67.95c0,7.132 5.869,13 13,13l160.1,0c7.132,0 13,-5.868 13,-13l0,-67.92c0,-7.132 -5.868,-13 -13,-13l0,-0.03Z" style="fill:#fff;fill-rule:nonzero;"/><path d="M41.049,63.66l-3.93,0l0,-19.58c-0.114,-2.771 0.896,-5.474 2.8,-7.49c1.713,-1.784 4.098,-2.772 6.57,-2.72c2.65,-0.09 5.219,0.942 7.07,2.84c1.714,1.75 2.649,4.121 2.59,6.57c0.064,2.423 -0.786,4.784 -2.38,6.61c-1.44,1.745 -3.597,2.746 -5.86,2.72l-5.32,0l0,-3.68l4.18,0c1.458,0.05 2.874,-0.504 3.91,-1.53c1.1,-1.081 1.72,-2.56 1.72,-4.101c0,-3.155 -2.595,-5.75 -5.75,-5.75c-0.043,0 -0.086,0 -0.13,0.001c-1.482,-0.043 -2.913,0.551 -3.93,1.63c-1.074,1.202 -1.631,2.78 -1.55,4.39l0.01,20.09Z" style="fill:#fff;fill-rule:nonzero;"/><path d="M59.029,34.38l3.93,0l0,18.86c0,4.493 1.98,6.737 5.94,6.73l3.81,0l0,3.68l-4.39,0c-2.512,0.099 -4.955,-0.859 -6.73,-2.64c-1.732,-1.837 -2.651,-4.297 -2.55,-6.82l-0.01,-19.81Z" style="fill:#fff;fill-rule:nonzero;"/><path d="M78.189,63.66l-3.93,0l0,-18.58c-0.142,-3.004 0.896,-5.949 2.89,-8.2c1.816,-1.991 4.417,-3.089 7.11,-3c2.719,-0.076 5.34,1.038 7.17,3.05c1.96,2.252 2.972,5.179 2.82,8.16l0,18.57l-3.93,0l0,-13.3l-10.54,0l0,-3.68l10.54,0l0,-1.84c0.108,-1.917 -0.478,-3.809 -1.65,-5.33c-1.135,-1.234 -2.738,-1.937 -4.415,-1.937c-1.677,0 -3.279,0.703 -4.415,1.937c-1.171,1.521 -1.757,3.413 -1.65,5.33l0,18.82Z" style="fill:#fff;fill-rule:nonzero;"/><path d="M101.899,63.66l-3.93,0l0,-25.94c0,-2.4 1.15,-3.6 3.45,-3.6c0.957,-0.051 1.891,0.314 2.56,1c0.781,1 1.429,2.095 1.93,3.26l9.46,19.45l0,-23.45l3.93,0l0,26.72c0,1.867 -1,2.8 -3,2.8c-0.799,0.04 -1.591,-0.166 -2.27,-0.59c-0.724,-0.607 -1.288,-1.383 -1.64,-2.26l-10.47,-21.42l-0.02,24.03Z" style="fill:#fff;fill-rule:nonzero;"/><path d="M152.929,34.38l0,3.68l-2.68,0c-3.075,-0.1 -6.068,1.022 -8.32,3.12c-2.174,2.016 -3.378,4.875 -3.3,7.84c-0.142,3.142 1.115,6.191 3.43,8.32c1.812,1.699 4.207,2.64 6.69,2.63l4.18,0l0,3.68l-4.18,0c-3.822,0.101 -7.515,-1.418 -10.16,-4.18c-2.711,-2.797 -4.177,-6.576 -4.06,-10.47c-0.02,-3.745 1.457,-7.347 4.1,-10c2.903,-3.073 6.985,-4.762 11.21,-4.64l3.09,0.02Z" style="fill:#fff;fill-rule:nonzero;"/></g></g></svg>