<?xml version="1.0" encoding="UTF-8" standalone="no"?><!DOCTYPE svg PUBLIC "-//W3C//DTD SVG 1.1//EN" "http://www.w3.org/Graphics/SVG/1.1/DTD/svg11.dtd"><svg width="100%" height="100%" viewBox="0 0 188 95" version="1.1" xmlns="http://www.w3.org/2000/svg" xmlns:xlink="http://www.w3.org/1999/xlink" xml:space="preserve" xmlns:serif="http://www.serif.com/" style="fill-rule:evenodd;clip-rule:evenodd;stroke-linejoin:round;stroke-miterlimit:1.41421;"><rect id="Artboard2" x="0.189" y="0" width="187.64" height="94.884" style="fill:none;"/><clipPath id="_clip1"><rect x="0.189" y="0" width="187.64" height="94.884"/></clipPath><g clip-path="url(#_clip1)"><g><path d="M187.829,13.22c0,-7.252 -5.887,-13.14 -13.14,-13.14l-161.33,0c-7.252,0 -13.14,5.888 -13.14,13.14l0,68.46c0,7.252 5.888,13.14 13.14,13.14l161.33,0c7.253,0 13.14,-5.888 13.14,-13.14l0,-68.46Z" style="fill:#009245;"/><path d="M0.189,52.56l187.64,0l0,29c0,7.197 -5.922,13.12 -13.12,13.12l-161.37,0c-0.01,0 -0.02,0 -0.03,0c-7.197,0 -13.12,-5.923 -13.12,-13.12c0,-0.013 0,-0.027 0,-0.04l0,-29l0,0.04Z" style="fill-opacity:0.35;fill-rule:nonzero;"/><path d="M174.069,1.83c6.389,0.005 11.645,5.261 11.65,11.65l0,67.95c-0.005,6.389 -5.261,11.645 -11.65,11.65l-160.1,0c-6.389,-0.005 -11.644,-5.261 -11.65,-11.65l0,-67.95c0.006,-6.389 5.261,-11.645 11.65,-11.65l160.1,0m0,-1.38l-160.1,0c-7.131,0 -13,5.868 -13,13l0,67.98c0,7.132 5.869,13 13,13l160.1,0c7.132,0 13,-5.868 13,-13l0,-67.95c0,-7.132 -5.868,-13 -13,-13l0,-0.03Z" style="fill:#fff;fill-rule:nonzero;"/><path d="M39.189,62.22l-4,0l0,-19.58c-0.113,-2.771 0.897,-5.473 2.8,-7.49c1.714,-1.783 4.098,-2.77 6.57,-2.72c2.651,-0.091 5.22,0.941 7.07,2.84c1.714,1.75 2.649,4.121 2.59,6.57c0.063,2.423 -0.787,4.783 -2.38,6.61c-1.44,1.745 -3.597,2.746 -5.86,2.72l-5.31,0l0,-3.68l4.18,0c1.47,0.076 2.906,-0.465 3.96,-1.49c1.053,-1.105 1.607,-2.596 1.53,-4.12c0.069,-1.55 -0.515,-3.06 -1.61,-4.16c-1.091,-1.053 -2.564,-1.62 -4.08,-1.57c-1.482,-0.045 -2.914,0.549 -3.93,1.63c-1.06,1.197 -1.61,2.763 -1.53,4.36l0,20.08Z" style="fill:#fff;fill-rule:nonzero;"/><path d="M57.189,32.94l3.93,0l0,18.86c0,4.493 1.98,6.737 5.94,6.73l3.81,0l0,3.68l-4.39,0c-2.512,0.109 -4.957,-0.846 -6.73,-2.63c-1.735,-1.835 -2.659,-4.296 -2.56,-6.82l0,-19.82Z" style="fill:#fff;fill-rule:nonzero;"/><path d="M76.309,62.22l-3.93,0l0,-18.57c-0.142,-3.004 0.896,-5.949 2.89,-8.2c1.815,-1.993 4.417,-3.09 7.11,-3c2.719,-0.075 5.339,1.04 7.17,3.05c1.96,2.252 2.972,5.179 2.82,8.16l0,18.56l-3.93,0l0,-13.3l-10.54,0l0,-3.68l10.54,0l0,-1.85c0.108,-1.917 -0.478,-3.809 -1.65,-5.33c-1.135,-1.234 -2.738,-1.937 -4.415,-1.937c-1.677,0 -3.279,0.703 -4.415,1.937c-1.171,1.521 -1.757,3.413 -1.65,5.33l0,18.83Z" style="fill:#fff;fill-rule:nonzero;"/><path d="M100.019,62.22l-3.93,0l0,-25.94c0,-2.4 1.15,-3.6 3.45,-3.6c0.958,-0.052 1.892,0.313 2.56,1c0.788,1.018 1.44,2.134 1.94,3.32l9.46,19.45l0,-23.51l3.93,0l0,26.72c0,1.867 -1,2.8 -3,2.8c-0.799,0.042 -1.592,-0.165 -2.27,-0.59c-0.725,-0.606 -1.288,-1.383 -1.64,-2.26l-10.5,-21.4l0,24.01Z" style="fill:#fff;fill-rule:nonzero;"/><path d="M136.749,62.22l-3.93,0l0,-18.57c-0.142,-3.004 0.896,-5.949 2.89,-8.2c1.815,-1.993 4.417,-3.09 7.11,-3c2.719,-0.075 5.339,1.04 7.17,3.05c1.96,2.252 2.972,5.179 2.82,8.16l0,18.56l-3.93,0l0,-13.3l-10.54,0l0,-3.68l10.54,0l0,-1.85c0.096,-1.922 -0.504,-3.815 -1.69,-5.33c-1.135,-1.234 -2.738,-1.937 -4.415,-1.937c-1.677,0 -3.279,0.703 -4.415,1.937c-1.171,1.521 -1.757,3.413 -1.65,5.33l0.04,18.83Z" style="fill:#fff;fill-rule:nonzero;"/></g></g></svg>