<?xml version="1.0" encoding="UTF-8" standalone="no"?><!DOCTYPE svg PUBLIC "-//W3C//DTD SVG 1.1//EN" "http://www.w3.org/Graphics/SVG/1.1/DTD/svg11.dtd"><svg width="100%" height="100%" viewBox="0 0 188 95" version="1.1" xmlns="http://www.w3.org/2000/svg" xmlns:xlink="http://www.w3.org/1999/xlink" xml:space="preserve" xmlns:serif="http://www.serif.com/" style="fill-rule:evenodd;clip-rule:evenodd;stroke-linejoin:round;stroke-miterlimit:1.41421;"><rect id="Artboard1" x="0.189" y="0" width="187.64" height="94.74" style="fill:none;"/><clipPath id="_clip1"><rect x="0.189" y="0" width="187.64" height="94.74"/></clipPath><g clip-path="url(#_clip1)"><g id="Layer_1"><g><path d="M188.159,13.22c0,-7.252 -5.887,-13.14 -13.14,-13.14l-161.33,0c-7.252,0 -13.14,5.888 -13.14,13.14l0,68.46c0,7.252 5.888,13.14 13.14,13.14l161.33,0c7.253,0 13.14,-5.888 13.14,-13.14l0,-68.46Z"/><path d="M0.549,52.56l187.64,0l0,29c0,7.197 -5.922,13.12 -13.12,13.12l-161.39,0c-0.003,0 -0.006,0 -0.01,0c-7.197,0 -13.12,-5.923 -13.12,-13.12c0,-0.013 0,-0.027 0,-0.04l0,-29l0,0.04Z" style="fill-opacity:0.35;fill-rule:nonzero;"/><path d="M174.409,1.83c6.389,0.005 11.645,5.261 11.65,11.65l0,67.95c-0.005,6.389 -5.261,11.645 -11.65,11.65l-160.1,0c-6.389,-0.005 -11.644,-5.261 -11.65,-11.65l0,-67.95c0.006,-6.389 5.261,-11.645 11.65,-11.65l160.1,0m0,-1.38l-160.1,0c-7.131,0 -13,5.868 -13,13l0,67.98c0,7.132 5.869,13 13,13l160.1,0c7.132,0 13,-5.868 13,-13l0,-67.95c0,-7.132 -5.868,-13 -13,-13l0,-0.03Z" style="fill:#fff;fill-rule:nonzero;"/><path d="M56.949,45.45l-3.93,0l0,-19.58c-0.114,-2.771 0.896,-5.474 2.8,-7.49c1.714,-1.783 4.098,-2.77 6.57,-2.72c2.65,-0.09 5.219,0.942 7.07,2.84c1.714,1.75 2.649,4.121 2.59,6.57c0.063,2.423 -0.787,4.783 -2.38,6.61c-1.44,1.745 -3.597,2.746 -5.86,2.72l-5.31,0l0,-3.68l4.18,0c1.457,0.054 2.873,-0.497 3.91,-1.52c1.053,-1.105 1.607,-2.596 1.53,-4.12c0.005,-0.095 0.008,-0.19 0.008,-0.286c0,-2.989 -2.46,-5.45 -5.45,-5.45c-0.083,0 -0.165,0.002 -0.248,0.006c-1.485,-0.039 -2.918,0.562 -3.93,1.65c-1.075,1.201 -1.632,2.78 -1.55,4.39l0,20.06Z" style="fill:#fff;fill-rule:nonzero;"/><path d="M74.939,16.17l3.93,0l0,18.83c0,4.493 1.98,6.737 5.94,6.73l3.81,0l0,3.68l-4.43,0c-2.513,0.107 -4.959,-0.853 -6.73,-2.64c-1.708,-1.83 -2.616,-4.269 -2.52,-6.77l0,-19.83Z" style="fill:#fff;fill-rule:nonzero;"/><path d="M94.089,45.45l-3.9,0l0,-18.58c-0.142,-3.004 0.896,-5.949 2.89,-8.2c1.815,-1.993 4.417,-3.09 7.11,-3c2.719,-0.076 5.34,1.038 7.17,3.05c1.961,2.248 2.976,5.171 2.83,8.15l0,18.58l-4,0l0,-13.31l-10.51,0l0,-3.68l10.51,0l0,-1.84c0.108,-1.917 -0.478,-3.809 -1.65,-5.33c-1.135,-1.234 -2.738,-1.937 -4.415,-1.937c-1.677,0 -3.279,0.703 -4.415,1.937c-1.171,1.521 -1.757,3.413 -1.65,5.33l0.03,18.83Z" style="fill:#fff;fill-rule:nonzero;"/><path d="M117.809,45.45l-3.93,0l0,-25.94c0,-2.4 1.15,-3.6 3.45,-3.6c0.957,-0.051 1.891,0.314 2.56,1c0.78,1 1.429,2.095 1.93,3.26l9.46,19.45l0,-23.45l3.91,0l0,26.72c0,1.867 -1,2.8 -3,2.8c-0.799,0.041 -1.591,-0.165 -2.27,-0.59c-0.724,-0.607 -1.288,-1.383 -1.64,-2.26l-10.47,-21.4l0,24.01Z" style="fill:#fff;fill-rule:nonzero;"/><path d="M53.099,62.57l-1.76,1.9c-0.913,-0.799 -1.893,-1.518 -2.93,-2.15c-2.898,-1.47 -6.439,-0.884 -8.71,1.44c-2.827,3.018 -2.827,7.772 0,10.79c1.377,1.475 3.323,2.291 5.34,2.24c1.788,0.045 3.533,-0.559 4.91,-1.7c1.39,-1.178 2.207,-2.899 2.24,-4.72l-6.8,0l0,-2.45l9.54,0l0,1.67c0.091,2.761 -1.094,5.415 -3.21,7.19c-4.038,3.44 -10.109,3.221 -13.89,-0.5c-1.917,-1.88 -2.998,-4.455 -2.998,-7.14c0,-2.685 1.081,-5.26 2.998,-7.14c1.886,-1.939 4.486,-3.024 7.19,-3c1.47,-0.029 2.93,0.243 4.29,0.8c1.428,0.675 2.714,1.615 3.79,2.77Z" style="fill:#fff;fill-rule:nonzero;"/><path d="M59.879,78.91l-2.62,0l0,-12.91c-0.102,-1.866 0.534,-3.699 1.77,-5.1c1.228,-1.265 2.94,-1.946 4.7,-1.87c1.605,-0.063 3.169,0.521 4.34,1.62c1.097,1.009 1.712,2.44 1.69,3.93c0.148,1.783 -0.735,3.501 -2.27,4.42c0.778,0.268 1.45,0.776 1.92,1.45c0.507,0.94 0.739,2.004 0.67,3.07l0,5.44l-2.62,0l0,-5.41c0,-2.12 -1.18,-3.18 -3.54,-3.18l-2.9,0l0,-2.45l2.07,0c1.043,0.049 2.073,-0.246 2.93,-0.84c0.749,-0.563 1.169,-1.464 1.12,-2.4c0.027,-0.874 -0.34,-1.715 -1,-2.29c-0.658,-0.59 -1.516,-0.908 -2.4,-0.89c-1.019,-0.051 -2.018,0.309 -2.77,1c-0.721,0.716 -1.11,1.704 -1.07,2.72l-0.02,13.69Z" style="fill:#fff;fill-rule:nonzero;"/><path d="M75.079,78.91l-2.62,0l0,-12.38c-0.098,-2.003 0.592,-3.967 1.92,-5.47c1.211,-1.328 2.945,-2.059 4.74,-2c1.808,-0.059 3.554,0.672 4.78,2c1.307,1.501 1.982,3.452 1.88,5.44l0,12.41l-2.59,0l0,-8.91l-7,0l0,-2.41l7,0l0,-1.23c0.073,-1.277 -0.317,-2.538 -1.1,-3.55c-0.756,-0.82 -1.823,-1.288 -2.94,-1.288c-1.116,0 -2.183,0.468 -2.94,1.288c-0.782,1.012 -1.173,2.273 -1.1,3.55l-0.03,12.55Z" style="fill:#fff;fill-rule:nonzero;"/><path d="M86.429,61.84l0,-2.45l12.26,0l0,2.45l-4.82,0l0,17.07l-2.62,0l0,-17.07l-4.82,0Z" style="fill:#fff;fill-rule:nonzero;"/><path d="M100.029,59.39l2.62,0l0,12.82c-0.055,1.188 0.298,2.36 1,3.32c0.724,0.802 1.755,1.26 2.835,1.26c1.081,0 2.111,-0.458 2.835,-1.26c0.701,-0.953 1.055,-2.118 1,-3.3l0,-12.84l2.62,0l0,13.1c0.044,1.785 -0.63,3.515 -1.87,4.8c-1.202,1.248 -2.862,1.954 -4.595,1.954c-1.732,0 -3.392,-0.706 -4.595,-1.954c-1.23,-1.29 -1.896,-3.018 -1.85,-4.8l0,-13.1Z" style="fill:#fff;fill-rule:nonzero;"/><rect x="116.039" y="59.39" width="2.62" height="19.52" style="fill:#fff;fill-rule:nonzero;"/><path d="M120.499,61.84l0,-2.45l12.27,0l0,2.45l-4.82,0l0,17.07l-2.62,0l0,-17.07l-4.83,0Z" style="fill:#fff;fill-rule:nonzero;"/><path d="M133.469,69.15c-0.042,-2.693 1.047,-5.285 3,-7.14c3.961,-3.918 10.43,-3.918 14.39,0c1.918,1.88 2.999,4.455 2.999,7.14c0,2.685 -1.081,5.26 -2.999,7.14c-3.96,3.918 -10.429,3.918 -14.39,0c-1.953,-1.855 -3.042,-4.447 -3,-7.14Zm2.73,0c-0.038,2.011 0.73,3.956 2.13,5.4c1.407,1.434 3.332,2.242 5.34,2.242c2.008,0 3.934,-0.808 5.34,-2.242c2.828,-3.018 2.828,-7.772 0,-10.79c-1.404,-1.436 -3.331,-2.246 -5.34,-2.246c-2.008,0 -3.935,0.81 -5.34,2.246c-1.401,1.44 -2.172,3.381 -2.14,5.39l0.01,0Z" style="fill:#fff;fill-rule:nonzero;"/></g></g></g></svg>